<svg xmlns="http://www.w3.org/2000/svg" width="80" height="50" viewBox="0 0 448 313.6" id="youtube">
  <g transform="translate(-32 -99.2)">
    <g stroke-width="2.404" transform="translate(314.594 428.651)scale(.41603)">
      <path fill="#fff" d="M -248.52492,-576.52087 32.650165,-414.99475 -248.52492,-253.4686 Z"></path>
      <path fill="#fe0000" d="m 373.64966,-675.23131 c -11.96482,-44.86836 -47.85953,-80.76301 -92.7279,-95.7192 -83.75426,-20.93853 -421.76258,-20.93853 -421.76258,-20.93853 0,0 -338.00826,0 -421.76265,20.93853 -44.8683,14.95619 -80.76302,50.85084 -92.7279,95.7192 -23.92983,83.75432 -23.92983,260.23656 -23.92983,260.23656 0,0 0,173.49097 23.92983,260.2365 11.96488,44.86836 47.8596,80.763051 92.7279,92.727916 83.75439,23.929827 421.76265,23.929827 421.76265,23.929827 0,0 338.00832,0 421.76258,-23.929827 44.86837,-11.964865 80.76308,-47.859556 92.7279,-92.727916 23.92984,-86.74553 23.92984,-260.2365 23.92984,-260.2365 0,0 0,-176.48224 -23.92984,-260.23656 z m -622.17457,421.76266 c 0,-323.05221 0,-323.05221 0,-323.05221 281.175075,161.52611 281.175075,161.52611 281.175075,161.52611 z"></path>
    </g>
  </g>
</svg>
